<svg id="Layer_1" data-name="Layer 1" xmlns="http://www.w3.org/2000/svg" viewBox="0 0 1057.62 915.25"><defs><style>.cls-1{fill:#4899cc;}.cls-2{fill:#b2b2b2;}.cls-3{fill:#0072b9;}.cls-4{fill:#0091c8;}.cls-5{fill:#4fc29f;}.cls-6{fill:grays;}.cls-7{fill:#72ceb2;}.cls-8{fill:silver;}.cls-9{fill:#8c8c8c;}.cls-10{fill:#bcbcbc;}.cls-11{fill:#a3a3a3;}.cls-12{fill:#a2decc;}.cls-13{fill:#cfcfcf;}.cls-14{fill:#e1e1e1;}.cls-15{fill:#fefefe;}</style></defs><path class="cls-1" d="M11.15,840.91c2,2.51.6,5.4.91,8.11a2,2,0,0,0-.91-.12Z" transform="translate(-11.15 -42.99)"/><path class="cls-2" d="M295.89,584.37c18.89-2.36,37-8,54.93-14,27.16-9,54-19.1,79.29-32.45,39.54-20.85,72.78-48.85,95.49-88.07,13.41-23.15,21.4-48.09,25.1-74.58a256.92,256.92,0,0,0,1.55-51.76c-1.66-26.22-6.88-51.9-14.26-77.15a530,530,0,0,0-32-83.18c-10.53-21.68-22.17-42.82-33.3-64.21-2.6-5-2.41-5.25,3-6q52.2-7.44,104.38-14.9,54.18-7.68,108.36-15.23c23.31-3.29,46.63-6.58,69.91-10,3.06-.46,4-.07,4,3.22.28,13.8,1.46,27.59.71,41.38-.52,9.59-.65,19.24-2.75,28.71-.69,3.12-2,4.78-5.34,5.35q-32.35,5.57-64.67,11.41c-23.66,4.25-47.31,8.63-71,12.79-2.8.49-3.25,1.78-2.83,4,.85,4.56,1.89,9.09,2.59,13.67.39,2.57,1.22,3.09,3.88,2.6,20.07-3.66,40.18-7.07,60.26-10.61q35-6.18,70-12.46c3.67-.66,5.33.16,4.16,4.27-.58,2-.49,4.27-.85,6.39-1.49,8.68-1.52,8.65-10.24,10.2-39.18,7-78.35,14-117.56,20.81-3.69.64-4.28,1.77-3.49,5.14A111.74,111.74,0,0,1,627.36,213c.28,2.59,1.45,2.88,3.67,2.48q45.29-8.17,90.58-16.23c8.82-1.58,17.68-2.9,26.46-4.68,3.15-.64,3.41.6,3.13,3-.33,2.8-.59,5.6-1,8.4-.65,4.52-3.39,7.1-7.78,7.91-10.6,2-21.21,3.84-31.81,5.8-20.71,3.82-41.41,7.7-62.13,11.47-4.23.77-8.54,1.18-12.82,1.65-2.7.3-4.27.93-3.45,4.34a88.52,88.52,0,0,1,2,13.26c.26,3,1.49,3.63,4.17,3.15q46-8.23,92.08-16.37c3.72-.66,7.46-1.22,11.63-1.9a202.19,202.19,0,0,1-9.44,37.32,545.47,545.47,0,0,1-68,134.38c-12.39,17.85-27.24,33.47-43.1,48.26-12.39,11.58-24.42,23.51-37.52,34.34-23.55,19.47-49.87,34.17-77.76,46.26-37.89,16.41-76.84,29.66-117.16,38.74a440.87,440.87,0,0,1-63.36,9.9c-10,.76-19.93.73-29.9.72-.36-.19-.48-.38-.35-.56A.5.5,0,0,1,295.89,584.37Z" transform="translate(-11.15 -42.99)"/><path class="cls-3" d="M307.59,608.17h70.25c12.64,0,25.35-.71,37.93.2s23.06,8.74,34.72,12.91c138.9,49.71,292.76-8.54,364.73-138.34,27.74-50,40.45-103.75,38.72-160.84A305.37,305.37,0,0,0,835,225.16c-1.76-4.78-1.78-4.78,1.5-9.24C892.9,317.42,896,496.81,759,617.52,622.23,738,424.4,721.83,307.59,608.17Z" transform="translate(-11.15 -42.99)"/><path class="cls-4" d="M198.8,409.22c0-9.82.16-19.64-.09-29.45-.09-3.56,1-4.4,4.46-4.39,31.29.09,62.58-.1,93.87.07,4.6,0,5.77-1.22,5.74-5.77-.17-31.12,0-62.24-.1-93.36,0-3.95,1.05-5,4.95-4.91q29.21.31,58.42,0c3.8,0,4.68,1.05,4.67,4.74-.1,31.45.1,62.91,0,94.36,0,4,1.16,4.92,5,4.94,31.46.11,62.91.53,94.37.63,4,0,4.94,1.25,4.9,5.07q-.33,28.45-.09,56.92c0,4.07-1,5.28-5.18,5.3-31.29.09-62.58.53-93.87.63-4.07,0-5.28.94-5.26,5.18.16,31.12,0,62.24.11,93.35,0,4-1.14,5-5,4.88-18.8-.34-37.61-.36-56.42-.53-6.51-.06-6.49-.11-6.53-6.85-.18-30.62-.44-61.24-.45-91.86,0-4-1.17-4.91-5-4.89-31.12.11-62.25-.07-93.38.06-4.06,0-5.43-.95-5.3-5.19.32-9.64.1-19.3.1-28.95Z" transform="translate(-11.15 -42.99)"/><path class="cls-5" d="M437.6,48.88c-38.91,16.54-73.33,39.72-102.43,70.44q-66,69.65-81.43,164.5A325.74,325.74,0,0,0,250,322c-.11,2.61-.58,3.88-3.59,3.85-12.31-.15-24.62-.1-36.93,0-2.42,0-3.5-.29-3.1-3.32C222.91,195.88,311.18,88.62,434.09,48.13a7.88,7.88,0,0,1,1.48-.21C436.6,47.49,437.65,47,437.6,48.88Z" transform="translate(-11.15 -42.99)"/><path class="cls-3" d="M484.35,857.87c-8.39.55-14.29-3.49-17.86-12.32-7.6-18.78-15.77-37.32-23.77-55.94-.8-1.85-1-4.88-3.73-4.57-2.38.26-2.07,3-2.47,4.92-4.52,20.94-9.11,41.88-13.44,62.86-.64,3.11-1.72,4.14-4.83,4a151.91,151.91,0,0,0-16,0c-3.85.24-4-1.42-3.37-4.39q7.2-33.37,14.26-66.78c1.25-5.85,2.38-11.72,3.7-17.55,3.39-15,23.23-22.49,35.95-13.67,2.88,2,4.37,4.91,5.69,8q12.28,28.89,24.63,57.74c.68,1.59.9,4.18,3.1,4s2-2.68,2.41-4.43c4.36-20.64,8.81-41.26,13-61.94.82-4,2.15-6,6.7-5.55a92,92,0,0,0,14.47,0c3.69-.22,4.12,1.17,3.42,4.36-5.16,23.7-10.2,47.42-15.27,71.14-.8,3.74-1.61,7.47-2.37,11.22C505.86,852.43,499.12,857.88,484.35,857.87Z" transform="translate(-11.15 -42.99)"/><path class="cls-5" d="M920.71,822.72c9.19,11.79,17.52,22.5,26.51,34-10.43,0-19.82,0-29.22,0-2,0-3-1.19-4-2.57-6.69-9.53-13.43-19-20-28.61a25.74,25.74,0,0,1-3.27-6.68c-2.17-6.87,2-13.51,9-15.07,5.94-1.31,11.94-.78,17.91-.81,6.48,0,10.71-3,12.9-9a35.33,35.33,0,0,0,2.57-13.13c-.1-3.79-1.7-6.48-5.68-7-10.76-1.4-21.57-.91-32.35-.33-4.83.27-5.83,4.44-6.64,8.23-3.83,17.86-7.56,35.74-11.34,53.61-1.24,5.85-2.7,11.66-3.72,17.55-.49,2.84-1.53,4-4.5,3.87-6.32-.19-12.65-.17-19,0-3.06.08-4.14-.57-3.41-4,6.08-28.08,11.94-56.21,18-84.29,2.41-11.11,7.06-15.83,17.86-16.05,19.45-.39,38.94-1,58.38.38,10.85.78,17.59,7.11,19.12,17.71a63.61,63.61,0,0,1-4.26,34.21c-5,11.83-14.16,17.63-26.92,17.88C926.45,822.76,924.17,822.72,920.71,822.72Z" transform="translate(-11.15 -42.99)"/><path class="cls-5" d="M1009.4,856.78c-10.81,0-21.62,0-32.43,0-11.12,0-15.81-5.84-13.52-16.71q7.37-35.09,14.84-70.14c2.85-13.3,8.11-17.55,21.81-17.59,21.46-.07,42.92.08,64.38-.1,4.5,0,5.08,1.2,3.47,5.12-4.23,10.26-11.25,15.3-22.69,15.45-11,.15-22,0-32.94.06-6.19,0-8,1.44-9.31,7.4-1,4.36-3.74,10.15-2,12.81,2,3,8.3.91,12.72,1,13.3.14,26.61.19,39.92,0,4.26-.07,6.34.48,4.57,5.38a38.83,38.83,0,0,0-2.07,9.72c-.34,4-2.42,4.68-6,4.65-16.13-.16-32.27.08-48.4-.17-4.37-.06-6.86.71-7.16,5.63-.19,3.28-1.36,6.49-2,9.74-1.16,5.69,0,7.41,5.83,7.56,9.47.23,19,.09,28.44.1,7.15,0,14.31.07,21.46,0,2.75,0,4,.45,3.1,3.67-1.49,5.25-.94,12.25-4.23,15.51s-10.42.86-15.86,1C1024.05,856.91,1016.72,856.78,1009.4,856.78Z" transform="translate(-11.15 -42.99)"/><path class="cls-3" d="M581.14,856.75c-7-.32-15.68.46-24.32-.69-17.52-2.31-27.86-12.51-29.05-30a101.26,101.26,0,0,1,9.18-49c6.89-15.25,19.55-22.65,35.85-23.92,20.59-1.62,41.25-.43,61.88-.78,2.44,0,3.19.63,2.63,3.19-2.51,11.35-9.77,17.36-21.51,17.66-11,.27-22-.57-32.92.65-10.33,1.16-17.74,6.11-21.61,15.94-4.11,10.45-7,21.18-6,32.51.65,7.41,4.25,11,11.43,12.51,7.9,1.67,15.91,1.1,23.88.93,4.11-.09,6.11-2.84,6.91-6.66,1.55-7.31,3.29-14.58,4.65-21.93.5-2.69,1.57-3.5,4.22-3.44,6.65.17,13.32.17,20,0,2.86-.07,3.29.8,2.68,3.47-2.61,11.5-4.87,23.08-7.52,34.57-2.41,10.44-8,14.77-18.76,15C596.06,856.85,589.4,856.75,581.14,856.75Z" transform="translate(-11.15 -42.99)"/><path class="cls-6" d="M363.73,205.75c14.2-13.34,29.68-25.16,44.58-37.66,11.72-9.84,22.78-20.44,35.08-29.61,3.83-2.84,5.76-2.44,8.66,1.2,35.05,44,57.71,93.29,65.74,149.17a457.24,457.24,0,0,1,4.57,83.55c-.75,18.45-2.72,36.8-8.73,54.45-.54,1.57-1.13,3.12-1.75,4.66a19,19,0,0,1-1.5,2.22c0-2.8,0-4.49,0-6.18.08-20.46.42-40.93.19-61.39-.57-50.51-13.95-98.11-33.41-144.25a326.42,326.42,0,0,0-27.89-52.85c-2.14-3.26-3.68-3.91-7.35-2-25.63,13.41-51.4,26.54-77.12,39.76C363.75,207.17,363.49,206.71,363.73,205.75Z" transform="translate(-11.15 -42.99)"/><path class="cls-5" d="M692.59,856.78c-7.53-.34-16.5.41-25.48-.76-16-2.08-26.3-10.84-28.18-26.9a88.55,88.55,0,0,1,12.49-57.38c7.3-12,19-17.28,32.56-18.59,17.09-1.67,34.25-.57,51.37-.88,3.35-.06,3.43,1.58,2.8,4.1-2.32,9.36-11.53,16.37-22.38,16.71-8.63.27-17.27-.08-25.82,1.69s-14.29,6.59-17.67,14.53a88.15,88.15,0,0,0-6.66,28c-.84,10.83,3.58,16.05,14.4,17.67,12.57,1.89,25.24.65,37.86.83,3.67.06,5.2.56,3.94,4.68a107.79,107.79,0,0,0-2.67,12.66c-.49,2.73-1.69,3.83-4.67,3.72C707.67,856.6,700.84,856.78,692.59,856.78Z" transform="translate(-11.15 -42.99)"/><path class="cls-3" d="M309.12,856.76c-11,0-22,0-32.94,0-10.73-.07-15.49-5.4-13.35-15.87,5.82-28.46,12-56.84,17.93-85.28.52-2.48,1.53-3.3,4-3.25,6.48.11,13,.25,19.45,0,3.92-.18,3.9,1.47,3.25,4.47q-7.62,35.29-15.05,70.62c-1.48,7-.37,8.46,6.63,8.47,16,0,31.93.09,47.9-.05,3.27,0,4.49.59,3.48,4.12a111.15,111.15,0,0,0-2.7,12.65c-.5,3.12-1.7,4.36-5.15,4.28C331.41,856.59,320.26,856.76,309.12,856.76Z" transform="translate(-11.15 -42.99)"/><path class="cls-3" d="M213.25,856.76c-10.82,0-21.63,0-32.44,0-11.14-.06-15.88-5.73-13.59-16.68,5.87-28.11,11.92-56.19,17.83-84.29.55-2.58,1.68-3.54,4.36-3.46,6.15.18,12.33.3,18.46,0,4-.22,4.79.93,3.95,4.74-4.57,20.75-8.94,41.54-13.37,62.33-.66,3.08-1.33,6.17-1.91,9.27-1.08,5.66.16,7.2,6.09,7.22,16,.06,32,.15,47.91-.07,3.94,0,5.3.77,4.11,4.81a64.41,64.41,0,0,0-2.55,11.66c-.4,4-2.4,4.64-5.91,4.58C235.21,856.64,224.23,856.76,213.25,856.76Z" transform="translate(-11.15 -42.99)"/><path class="cls-6" d="M749.44,271.7a279.61,279.61,0,0,1-14.25,55.9c-43,118.46-123.81,197.83-244.41,235.93-8,2.53-16.11,5-24.62,5.63,11.45-4.73,23.07-9,34.3-14.11C623.83,498.39,706.92,406.13,747.1,276c.44-1.43.9-2.85,1.35-4.28A.63.63,0,0,1,749.44,271.7Z" transform="translate(-11.15 -42.99)"/><path class="cls-5" d="M846.46,191.48l-46.8-22.16c-.89-.41-1.8-.77-3.78-1.62,1.73,18.73,3.39,36.72,5,54.69,2.06,0,3-1.08,4.08-1.81,7.55-5.1,7.54-5.1,13,2.48,6.28,8.78,6.27,8.78-2.49,14.86l-27,18.79c-3.58-38.43-7.1-76.15-10.72-115l104.4,49.49c-11.59,8.12-22.72,15.88-33.8,23.71-1.93,1.36-2.64,0-3.5-1.23-2.77-3.94-5.42-8-8.31-11.83-1.37-1.82-1-2.77.75-3.92C840.23,196.07,843,194,846.46,191.48Z" transform="translate(-11.15 -42.99)"/><path class="cls-3" d="M133.62,857c-4.12-.2-9.82,1.15-12-1-2.44-2.46.66-7.73,1.5-11.71,6.13-29.21,12.5-58.38,18.59-87.6.67-3.24,1.74-4.46,5.1-4.33,6.14.25,12.3.2,18.44,0,3-.09,4.22.55,3.5,3.9q-10.5,48.63-20.77,97.3c-.5,2.4-1.42,3.41-3.92,3.28-3.48-.17-7,0-10.47,0Z" transform="translate(-11.15 -42.99)"/><path class="cls-3" d="M355,856.75c3.05-14.52,6-28.6,9-42.68,4-18.82,8.1-37.62,11.93-56.48.79-3.84,2-5.67,6.38-5.33,6.11.47,12.29.18,18.44.09,2.35,0,3.24.47,2.66,3.13q-10.57,49.13-21,98.3c-.35,1.62-.68,3.07-3.06,3C371.33,856.66,363.37,856.75,355,856.75Z" transform="translate(-11.15 -42.99)"/><path d="M736.22,926.79c0-8.15.08-16.3,0-24.45,0-3.94.4-7.36,4.88-8.64s8.28.09,10.79,4c5.64,8.81,11.11,17.74,16.66,26.61,4.06,6.48,8.08,13,12.22,19.4.91,1.41,1.41,4.1,3.56,3.45,1.77-.53.83-2.95.83-4.5.07-14.8.14-29.61,0-44.41,0-3.41.78-4.52,4.37-4.56,3.75-.05,3.85,1.72,3.84,4.53q-.12,24.94,0,49.89c0,4.19-.11,8.32-5.06,9.6S779.7,957,777,952.55c-7.88-12.89-16-25.65-24-38.46-1.5-2.39-3-4.8-4.53-7.16-.79-1.2-1.35-3.23-3.06-2.81-1.92.48-1,2.55-1,3.89-.07,15-.17,29.94,0,44.9.06,3.74-.93,4.93-4.71,4.76-3-.14-3.54-1.33-3.51-3.94C736.29,944.75,736.22,935.77,736.22,926.79Z" transform="translate(-11.15 -42.99)"/><path d="M842.92,957.55c-5.82,0-11.64-.1-17.45.05-2.67.07-3.42-1-3.42-3.5s.66-3.54,3.36-3.5c10,.13,20-.07,29.93.1,4.52.08,7.92-1,8.77-6,1-6.1-.7-9.68-6-11.54-8.62-3-17.35-5.66-26-8.63-7.48-2.58-10.71-7-10.9-14.3-.3-11.62,4.38-16.39,16.1-16.41,9.65,0,19.29.08,28.93-.05,2.72,0,3.8.64,3.82,3.58s-1.29,3.53-3.9,3.5c-9.31-.12-18.62,0-27.93-.07-3.81,0-7,.6-8,5-1.33,6,.08,9.79,4.92,11.61,7.14,2.67,14.44,4.92,21.66,7.37,2,.69,4.11,1.33,6.09,2.16,8.15,3.43,11.19,8.69,10.09,17.3-1.25,9.7-5.32,13.31-15.13,13.35C852.9,957.57,847.91,957.56,842.92,957.55Z" transform="translate(-11.15 -42.99)"/><path d="M228.26,957.55c-5.65,0-11.31-.12-17,.06-2.87.08-3.71-1-3.73-3.76s1.31-3.25,3.67-3.23c10,.08,20-.11,29.94.09,4.5.09,7.4-1.43,8.42-5.91,1.21-5.3-.69-9.61-5.55-11.37q-12.65-4.57-25.5-8.55c-11.35-3.51-13.1-10.87-11.19-21.55,1-5.8,5.4-9.15,12-9.35,11-.33,22-.06,32.93-.18,2.65,0,2.88,1.34,2.92,3.42.05,2.33-.31,3.7-3.19,3.66-9.32-.15-18.63.07-27.94-.11-4.58-.09-7.79,1.09-8.65,6.11-.9,5.22.85,9,5.71,10.72,8.29,2.93,16.69,5.52,25,8.39,11.68,4,14.22,10.56,11.38,22.66-1.39,5.93-5.52,8.69-12.27,8.87C239.58,957.67,233.92,957.55,228.26,957.55Z" transform="translate(-11.15 -42.99)"/><path d="M498.7,918.66c0,6.15.08,12.31,0,18.46-.17,11.59-4.88,17.52-16.14,20a44.77,44.77,0,0,1-18.83.13c-11.73-2.38-16.7-8.48-16.84-20.54-.15-13,.09-26-.11-38.92,0-3.45,1.23-4.15,4.33-4.09,2.93.06,4.5.37,4.44,4-.22,12.63-.11,25.28-.08,37.92,0,10.49,3.11,14,13.41,15.56a29.84,29.84,0,0,0,12.82-1c5.91-1.7,8.74-6.43,8.79-14.58.07-12.47.14-25-.06-37.42-.06-3.49.92-4.47,4.43-4.51,3.67,0,4,1.62,3.9,4.5C498.61,905,498.71,911.84,498.7,918.66Z" transform="translate(-11.15 -42.99)"/><path d="M553,893.84c8.48,0,17,0,25.45,0,2.43,0,4.47-.26,4.48,3.41,0,3.46-1.61,3.69-4.27,3.63-5.82-.12-11.65.13-17.46-.1-3.14-.12-3.91,1-3.88,4,.12,16,0,31.93.12,47.89,0,3.44-.53,5.09-4.56,5.06s-4.18-1.89-4.16-4.93c.08-15.8-.1-31.6.13-47.39.06-3.85-1.15-4.81-4.79-4.63-5.81.29-11.64,0-17.46.12-2.72.08-3.36-1-3.35-3.52s.54-3.61,3.31-3.57C535.34,893.93,544.16,893.84,553,893.84Z" transform="translate(-11.15 -42.99)"/><path d="M376.74,923.54c0-8.65.15-17.3-.08-25.95-.08-3.22,1.09-3.87,4-3.84s4.45.47,4.41,4c-.19,15.46-.09,30.94-.08,46.41,0,6.1.36,6.45,6.54,6.45,9.65,0,19.3,0,28.95,0,2.39,0,4.15,0,4.07,3.33-.06,2.91-1.2,3.67-3.9,3.65-11.81-.1-23.62,0-35.44-.09-6.33-.07-8.46-2.49-8.49-9C376.71,940.18,376.74,931.86,376.74,923.54Z" transform="translate(-11.15 -42.99)"/><path d="M607.36,925.79c0-9,.07-18,0-26.95,0-3.08-.12-5.17,4.25-5.18,4.69,0,4,2.63,4,5.41,0,17.8,0,35.6,0,53.4,0,3.07.12,5.24-4.26,5.25-4.69,0-4-2.7-4-5.48Q607.38,939,607.36,925.79Z" transform="translate(-11.15 -42.99)"/><path class="cls-7" d="M437.6,48.88l-2-1A47.62,47.62,0,0,1,448.65,44c.3.22.39.42.27.61s-.23.26-.34.26Z" transform="translate(-11.15 -42.99)"/><path class="cls-8" d="M463.86,569.87c-1.75,1.82-3.09,1.4-4.95,1.14C460.59,570.17,461.76,569.44,463.86,569.87Z" transform="translate(-11.15 -42.99)"/><path class="cls-9" d="M749.44,271.7h-1c.34-1.63.68-3.27,1-4.91a.52.52,0,0,1,.89-.11C750.26,268.39,750.67,270.2,749.44,271.7Z" transform="translate(-11.15 -42.99)"/><path class="cls-10" d="M750.37,266.68c-.3.05-.59.09-.89.11l.9-5c.27-.44.57-.47.92-.08C751.16,263.39,752,265.27,750.37,266.68Z" transform="translate(-11.15 -42.99)"/><path class="cls-11" d="M363.73,205.75l1.08,1.08a5.61,5.61,0,0,1-3.33,1.8C361.21,206.8,362.69,206.45,363.73,205.75Z" transform="translate(-11.15 -42.99)"/><path class="cls-12" d="M448.58,44.86a8.5,8.5,0,0,0,.07-.87c.92-1.16,2-1.33,3.64-.43Z" transform="translate(-11.15 -42.99)"/><path class="cls-13" d="M295.89,584.37a3.75,3.75,0,0,0,0,.82H291C293.17,583.94,294.56,584.34,295.89,584.37Z" transform="translate(-11.15 -42.99)"/><path class="cls-14" d="M751.3,261.7a5.62,5.62,0,0,0-.92.08c.41-1,.82-2.08,1.26-3.17C752.78,259.85,752.36,260.82,751.3,261.7Z" transform="translate(-11.15 -42.99)"/><path class="cls-3" d="M98.13,752.49c-17.29-.39-34.6-.27-51.9,0-11.38.16-16.65,4.75-19.06,15.83-3.41,15.74-6.57,31.53-10.1,47.24-1.83,8.16-2.58,16.59-5.92,24.39v1c1.34,2.58-.24,5.5.91,8.11,1.65,5.82,6.24,7.61,11.49,7.65,20,.14,39.92.39,59.87-.11,16.24-.4,23.18-6.36,27.89-22,.38-1.27.7-2.56,1-3.85,1.36-5.38,1.88-10.83.5-16.27-1.49-5.94-5.82-9.16-11.6-11,10.18-1.74,16.12-7.5,18.36-17.08a50.09,50.09,0,0,0,1.29-8.86C121.67,761.64,114,752.84,98.13,752.49ZM86,823.54c-1.3,9-5,12.56-14.07,12.84-8.29.25-16.59.19-24.88,0-6-.13-6.8-1.32-5.88-7.39,2.27-15.15,2.27-15.15,17.49-15.15h4.48v0c5,0,10-.11,14.93,0C84.56,814.11,86.89,817,86,823.54Zm7.6-42.37c-1.09,9.69-4.84,13.12-14.51,13.2-4.15,0-8.3,0-12.46,0-4.81,0-9.64-.18-14.45.06-3.16.15-3.64-1.11-3-3.78,1-4.19,1.92-8.41,2.89-12.61.77-3.33,2.78-5.18,6.31-5.18,9.47,0,18.94-.14,28.4.09C92,773.08,94.14,776,93.55,781.17Z" transform="translate(-11.15 -42.99)"/><path class="cls-15" d="M559.48,276.09a8.26,8.26,0,0,1-3.6-6.14c-2.16-17.25-8.54-33.35-13.34-49.88-8-27.46-17-54.5-30.76-79.74-5.72-10.51-11.15-21.17-16.94-31.64-2.15-3.89-1.7-5.77,2.92-6.68,18-3.54,36.2-6.33,54.37-9q26.28-3.91,52.6-7.55C620.8,83.19,636.89,81.09,653,79c16.58-2.2,33.15-4.42,49.74-6.53,12.32-1.57,24.66-3,37-4.44,1-.12,2,0,3-.18,9.8-1.4,11.42.37,9.62,10.3-.33,1.82-1.27,2.44-2.91,2.79-17.83,3.75-35.79,6.7-53.86,9.07-17.55,2.31-35,5.1-52.58,7.55q-27.3,3.83-54.63,7.38c-17.9,2.33-35.81,4.53-53.72,6.73-2.14.26-4.32.23-6.48.3-4,.12-5,1.73-3.63,5.7,5.5,16.18,10.7,32.46,16,48.7,8.31,25.4,14.9,51.21,17.8,77.84A204.6,204.6,0,0,1,559.48,276.09Z" transform="translate(-11.15 -42.99)"/><path class="cls-5" d="M838.28,845.7c0-.16,0-.33-.07-.49q-8.46-41-16.92-81.93c-1.36-6.6-5.14-10.35-12-11.54-13.65-2.39-22.49,1.4-30,13.34Q763.75,790,748.08,814.92c-8.55,13.63-17.09,27.27-26.23,41.86,9.23,0,17.36-.14,25.48.07a5.85,5.85,0,0,0,5.94-3.39c3.28-5.78,7-11.33,10.19-17.14,1.5-2.7,3.31-3.56,6.34-3.51,10.15.19,20.3.08,30.45.08,9.54,0,9.54,0,11,9.52,2.26,14.37,2.26,14.37,16.56,14.37h1C840.4,856.78,840.4,856.78,838.28,845.7Zm-42.53-33H779.81c-1.86,0-3.09-.35-1.75-2.53q10.2-16.5,20.43-33c.21-.35.83-.44,1.89-1,1.63,8.31,3.21,16.38,4.78,24.45.07.32.07.66.13,1C807.22,812.75,807.22,812.75,795.75,812.75Z" transform="translate(-11.15 -42.99)"/><path d="M347.77,925.79c0-2.5.14-5,0-7.48-.92-14.21-6.63-21.42-19.47-24a58.82,58.82,0,0,0-26.65.69c-7.47,1.94-12.66,6.54-14.74,14.1a61.52,61.52,0,0,0-.05,33c2.16,7.94,7.57,12.79,15.49,14.56a66.06,66.06,0,0,0,26.72.3c10-1.86,15.69-7.93,17.77-17.75A51.46,51.46,0,0,0,347.77,925.79Zm-10,13.63c-1.5,5.92-5.35,9.45-11.11,10.85a43.52,43.52,0,0,1-20.67,0c-8.35-2-11-8.32-12-15.81-.39-2.95-.31-6-.44-8.94h.1v-1c0-21.72,17.58-32,37.17-21.8a13.22,13.22,0,0,1,6.8,8.76A54.64,54.64,0,0,1,337.77,939.42Z" transform="translate(-11.15 -42.99)"/><path d="M706,911.51c-1.72-8-6.19-13.93-14.44-16.2a58,58,0,0,0-31.46,0c-7.07,2-11.66,6.66-13.86,13.76-1.89,6.14-2.2,12.41-2,18.73.83,22.94,8.4,30.23,31.24,30,2.66,0,5.33.16,8,0,12.75-1,19.83-6.53,22.52-18.06A64.26,64.26,0,0,0,706,911.51Zm-8.74,27.7c-1.58,5.79-5.13,9.55-11,11a43.1,43.1,0,0,1-21.14-.07,13.81,13.81,0,0,1-10.66-10.65,55.43,55.43,0,0,1-.06-27.53c1.52-6.16,5.6-9.6,11.58-11a44,44,0,0,1,19.73,0c7.56,1.71,11.66,7.08,12.56,16.46.27,2.8.27,5.63.4,8.44A53.3,53.3,0,0,1,697.24,939.21Z" transform="translate(-11.15 -42.99)"/></svg>