<svg width="53" height="53" viewBox="0 0 53 53" fill="none" xmlns="http://www.w3.org/2000/svg">
<g clip-path="url(#clip0_48_2)">
<path d="M24.3783 6.02038C24.5616 5.75876 24.7144 5.53668 24.8671 5.3146C26.2752 3.18352 28.3356 1.56114 30.7427 0.6881C33.1497 -0.18494 35.7753 -0.262142 38.2299 0.467942C40.6845 1.19803 42.8374 2.69651 44.3693 4.74115C45.9013 6.78578 46.7306 9.26766 46.7343 11.8187C46.7343 12.5549 46.9482 12.8713 47.6294 13.1603C49.755 14.0758 51.4342 15.7864 52.3051 17.9232C53.176 20.0601 53.1689 22.4522 52.2853 24.5839C51.4017 26.7156 49.7123 28.4162 47.5814 29.3192C45.4504 30.2222 43.0485 30.2553 40.8933 29.4113C40.1448 29.1071 39.8821 28.7786 39.9432 27.9115C40.0894 26.0638 39.8499 24.206 39.2398 22.455C38.6297 20.7039 37.6622 19.0977 36.3981 17.7372C35.1341 16.3768 33.6009 15.2917 31.8951 14.5502C30.1893 13.8087 28.3479 13.4268 26.4866 13.4287C24.6254 13.4306 22.7847 13.8162 21.0804 14.5612C19.3762 15.3062 17.8452 16.3944 16.584 17.7574C15.3228 19.1204 14.3585 20.7287 13.752 22.4809C13.1455 24.2332 12.9098 26.0915 13.0598 27.9389C13.127 28.8272 12.8124 29.1345 12.0822 29.4174C10.9592 29.8571 9.7576 30.0632 8.55153 30.0228C7.34547 29.9825 6.16047 29.6966 5.06959 29.1828C3.9787 28.669 3.00503 27.9382 2.20858 27.0354C1.41214 26.1326 0.809794 25.077 0.438672 23.9335C0.0675497 22.7901 -0.0644868 21.583 0.0507 20.3868C0.165887 19.1906 0.525857 18.0306 1.10842 16.9782C1.69099 15.9258 2.48381 15.0034 3.43803 14.2678C4.39224 13.5321 5.48763 12.9989 6.65669 12.7009C7.17297 12.567 7.57317 12.4788 7.77785 11.8491C10.1301 4.87654 17.5047 2.11428 23.9048 5.76484C24.0484 5.84393 24.195 5.92303 24.3783 6.02038Z" fill="white"/>
<path d="M26.5565 16.5674C28.6114 16.5795 30.6165 17.1983 32.3182 18.3456C34.0198 19.4928 35.3415 21.1168 36.116 23.0123C36.8904 24.9077 37.0829 26.9893 36.6691 28.9937C36.2552 30.9981 35.2535 32.8352 33.7909 34.2726C32.3282 35.7099 30.4703 36.6829 28.4522 37.0685C26.434 37.4541 24.3464 37.2348 22.4534 36.4386C20.5604 35.6423 18.9472 34.3048 17.8178 32.5952C16.6884 30.8857 16.0936 28.8809 16.1086 26.8346C16.1288 24.0941 17.2405 21.4735 19.1994 19.5485C21.1583 17.6234 23.8044 16.5512 26.5565 16.5674ZM32.1929 26.8894C32.1868 25.7669 31.8462 24.6714 31.2144 23.7417C30.5826 22.8121 29.6879 22.0901 28.6436 21.6673C27.5994 21.2444 26.4526 21.1397 25.3486 21.3664C24.2445 21.5931 23.2329 22.141 22.4418 22.9407C21.6507 23.7404 21.1158 24.7559 20.9048 25.8586C20.6938 26.9614 20.8162 28.1016 21.2565 29.135C21.6968 30.1684 22.4352 31.0483 23.3782 31.6635C24.3212 32.2786 25.4262 32.6012 26.5535 32.5903C27.2998 32.5852 28.0377 32.4336 28.7252 32.1442C29.4126 31.8548 30.036 31.4333 30.5598 30.9039C31.0835 30.3744 31.4973 29.7473 31.7776 29.0585C32.0578 28.3697 32.1989 27.6326 32.1929 26.8894Z" fill="white"/>
<path d="M15.5557 34.9268L17.8897 37.3605C17.0557 38.1271 16.2461 38.9211 15.3785 39.6512C15.0726 39.8738 14.8333 40.1753 14.6864 40.5231C14.5394 40.8709 14.4904 41.252 14.5445 41.6255C14.6056 42.1366 14.4804 42.672 14.5812 43.1709C14.6481 43.5701 14.8588 43.9313 15.1738 44.187C17.1626 45.4039 18.0791 47.4512 17.5017 49.5594C17.2305 50.5394 16.6451 51.4043 15.8345 52.0222C15.0239 52.6401 14.0327 52.9771 13.0119 52.9819C11.9911 52.9868 10.9967 52.6591 10.1803 52.0489C9.36383 51.4387 8.77013 50.5794 8.48964 49.602C7.87866 47.4999 8.79514 45.4191 10.7686 44.2083C11.0894 44.0106 11.4438 43.4508 11.3796 43.1223C10.8969 40.1866 12.0181 37.9963 14.3337 36.2714C14.8011 35.9398 15.125 35.4196 15.5557 34.9268Z" fill="white"/>
<path d="M35.1806 37.3026L37.2457 35.1305C38.5807 36.4021 39.9371 37.6585 41.2354 38.9697C41.4676 39.2009 41.5134 39.6602 41.5409 40.0253C41.5837 40.506 41.5837 40.9896 41.5409 41.4703C41.4462 42.8605 41.5165 43.98 43.0012 44.8927C44.715 45.9453 45.0785 48.3425 44.269 50.1951C43.8812 51.0886 43.2218 51.8386 42.3836 52.3394C41.5454 52.8403 40.5707 53.0669 39.5964 52.9873C38.6222 52.9077 37.6975 52.526 36.9525 51.8958C36.2076 51.2656 35.6797 50.4186 35.4433 49.4741C35.1932 48.5147 35.2636 47.5002 35.6439 46.5842C36.0242 45.6681 36.6937 44.9003 37.5512 44.3968C38.2172 44.0226 38.373 43.6089 38.4524 42.8758C38.6479 41.1387 38.1103 39.8184 36.7172 38.778C36.176 38.3171 35.6629 37.8244 35.1806 37.3026Z" fill="white"/>
<path d="M24.9313 40.3751H28.0626C28.0626 41.2269 28.1115 42.0453 28.0626 42.8575C28.0045 43.5967 28.2337 44.0074 28.921 44.3786C29.7976 44.8867 30.4801 45.6701 30.8616 46.606C31.243 47.5419 31.3019 48.5774 31.0289 49.5502C30.7671 50.5359 30.1879 51.4089 29.3801 52.0354C28.5723 52.6618 27.5805 53.0073 26.5567 53.0186C25.5329 53.03 24.5335 52.7068 23.7119 52.0984C22.8902 51.4901 22.2916 50.6302 22.0077 49.6506C21.7039 48.6516 21.7532 47.5792 22.1474 46.6121C22.5415 45.6449 23.2567 44.8416 24.1737 44.336C24.4384 44.2268 24.6585 44.0321 24.7987 43.7833C24.9389 43.5344 24.991 43.2459 24.9466 42.964C24.8946 42.1152 24.9313 41.2604 24.9313 40.3751Z" fill="white"/>
<path d="M26.5413 24.3401C27.0539 24.3488 27.5525 24.5088 27.9736 24.8001C28.3948 25.0914 28.7195 25.5007 28.9067 25.9761C29.0938 26.4515 29.1349 26.9715 29.0247 27.4702C28.9145 27.9688 28.658 28.4237 28.2878 28.7769C27.9176 29.1302 27.4503 29.366 26.9453 29.4543C26.4403 29.5426 25.9203 29.4796 25.4513 29.2731C24.9823 29.0666 24.5856 28.726 24.3113 28.2946C24.0371 27.8632 23.8977 27.3603 23.911 26.8499C23.9177 26.513 23.9911 26.1807 24.1271 25.8721C24.263 25.5635 24.4587 25.2846 24.7031 25.0515C24.9474 24.8183 25.2356 24.6355 25.551 24.5134C25.8664 24.3914 26.2029 24.3325 26.5413 24.3401Z" fill="white"/>
</g>
<defs>
<clipPath id="clip0_48_2">
<rect width="53" height="53" fill="white"/>
</clipPath>
</defs>
</svg>
