<svg width="52" height="52" viewBox="0 0 52 52" fill="none" xmlns="http://www.w3.org/2000/svg">
<g clip-path="url(#clip0_48_9)">
<path d="M3.10484 39.667V9.24109H11.3457C11.4781 11.0469 11.47 12.8527 11.7797 14.6015C12.0486 16.122 12.5946 17.616 13.1813 19.0508C13.5217 19.8577 13.6317 20.7431 13.4991 21.6087C13.0387 25.1124 12.6048 28.618 12.1688 32.1217C12.1321 32.4192 12.1362 32.7209 12.1199 33.0816H39.929C39.6662 30.9293 39.4176 28.8463 39.1589 26.7633C38.9287 24.9086 38.6414 23.0599 38.4764 21.2011C38.4213 20.5383 38.5269 19.872 38.784 19.2587C40.1735 16.0853 40.8519 12.8038 40.4444 9.24924H48.8564V39.667H3.10484Z" fill="white"/>
<path d="M37.4904 12.4166C37.4211 14.8808 36.3189 17.8035 34.6117 20.5245C32.5071 23.8773 29.7364 26.6044 26.5704 28.9422C26.33 29.1215 25.7555 29.1786 25.5518 29.0216C21.5628 26.0867 18.1645 22.6157 16.0498 18.0624C14.6604 15.0703 14.0125 11.9478 14.803 8.65211C16.1415 3.02471 21.7298 -0.680697 27.6502 0.108077C33.3465 0.864241 37.7226 5.97395 37.4904 12.4166ZM29.0458 12.1924C29.0417 11.5869 28.8579 10.9963 28.5179 10.4953C28.1778 9.99444 27.6967 9.60583 27.1356 9.37881C26.5745 9.15179 25.9586 9.09658 25.3661 9.22018C24.7736 9.34378 24.2311 9.64062 23.8074 10.0731C23.3838 10.5055 23.098 11.0541 22.9864 11.6492C22.8747 12.2443 22.9423 12.8592 23.1804 13.4159C23.4185 13.9726 23.8165 14.446 24.324 14.7761C24.8314 15.1062 25.4253 15.2781 26.0306 15.2701C26.4311 15.2674 26.8272 15.1855 27.1959 15.029C27.5647 14.8725 27.8988 14.6446 28.1791 14.3583C28.4594 14.072 28.6803 13.7331 28.829 13.361C28.9777 12.9889 29.0514 12.5911 29.0458 12.1904V12.1924Z" fill="white"/>
<path d="M51.9918 42.8935C51.9918 44.5648 52.0163 46.1545 51.9694 47.7484C51.9445 47.9063 51.888 48.0575 51.8033 48.1931C51.7186 48.3286 51.6074 48.4456 51.4764 48.5372C49.9138 49.6194 48.3329 50.6773 46.7315 51.6964C46.3845 51.8949 45.9904 51.9962 45.5907 51.9898C32.5221 52.0034 19.4542 52.0034 6.38693 51.9898C5.95504 51.9816 5.53313 51.8585 5.16455 51.6332C3.61824 50.6508 2.1086 49.6256 0.590817 48.5759C0.342266 48.4047 0.0427836 48.0827 0.0346344 47.8238C-0.016298 46.1933 0.0101871 44.575 0.0101871 42.8751H21.4018V45.7856H30.5269V42.8935H51.9918Z" fill="white"/>
<path d="M30.3089 30.006L35.8442 24.986C36.0113 26.2904 36.2517 28.1023 36.4839 30.006H30.3089Z" fill="white"/>
<path d="M21.7115 30.0326H15.5161C15.7524 28.1391 15.9785 26.3149 16.1436 24.984L21.7115 30.0326Z" fill="white"/>
</g>
<defs>
<clipPath id="clip0_48_9">
<rect width="52" height="52" fill="white"/>
</clipPath>
</defs>
</svg>
