<svg width="42" height="42" viewBox="0 0 42 42" fill="none" xmlns="http://www.w3.org/2000/svg">
<g clip-path="url(#clip0_48_18)">
<path d="M17.5157 0.00323426V4.48971C17.5157 6.92097 17.5157 9.35278 17.5157 11.7851C17.5157 15.0155 19.1193 16.9166 22.3264 17.4883C22.405 17.5015 22.4902 17.5293 22.7131 17.5949C20.7927 18.8395 19.6605 20.5236 19.2902 22.7635H17.8795C14.8466 22.7635 11.817 22.7521 8.7808 22.775C7.71249 22.775 7.01121 23.5244 7.02596 24.528C7.03906 25.4856 7.74198 26.1842 8.75622 26.2416C8.97415 26.2547 9.19371 26.2416 9.41163 26.2416H19.1936V29.7359H18.2825C15.1956 29.7359 12.107 29.7359 9.02003 29.7359C7.83538 29.7359 7.09477 30.3656 7.03087 31.3593C6.95878 32.4777 7.73052 33.2353 9.00692 33.2402C12.1774 33.2533 15.3463 33.2402 18.5103 33.2402H19.4934C20.3258 36.7969 22.3985 39.5386 25.2626 41.9311C24.8759 41.9557 24.6482 41.9836 24.4204 41.9836C19.2296 41.9836 14.0372 41.995 8.85454 41.9836C3.87018 41.9704 0.0213123 38.1251 0.0065657 33.1434C-0.00654241 25.0265 -0.00654241 16.91 0.0065657 8.79416C0.0163968 3.86495 3.8751 0.0196322 8.80702 -0.0033249C11.3746 -0.0164432 13.9438 -0.0033249 16.508 -0.0033249L17.5157 0.00323426Z" fill="white"/>
<path d="M22.7589 27.4321C22.7589 26.2022 22.7475 24.9724 22.7589 23.7425C22.7802 22.0634 23.6208 20.8696 25.1954 20.3301C27.3402 19.5971 29.4883 18.8756 31.6528 18.1984C32.1183 18.0631 32.6127 18.0631 33.0783 18.1984C35.2428 18.8691 37.3925 19.5889 39.5357 20.3301C41.1349 20.8778 41.9803 22.1044 41.9934 23.818C42.0016 26.0038 41.9705 28.1913 41.9934 30.3771C42.0393 33.6042 40.8235 36.2804 38.5149 38.4843C36.9642 39.9569 35.1292 41.0969 33.1225 41.8344C32.6128 42.0096 32.0568 41.9939 31.5578 41.7901C29.0852 40.6242 26.8913 39.0615 25.1413 36.933C23.5421 34.9866 22.6574 32.7794 22.7491 30.2197C22.7868 29.2916 22.7589 28.3618 22.7589 27.4321Z" fill="white"/>
<path d="M34.1073 13.9957H26.5816C25.3249 13.9957 24.0665 14.0121 22.813 13.9875C21.7414 13.9662 21.0107 13.302 21.0107 12.2673C20.9877 8.4958 21.0107 4.72428 21.0107 0.952759C23.747 1.32991 33.0963 10.598 34.1073 13.9957Z" fill="white"/>
</g>
<defs>
<clipPath id="clip0_48_18">
<rect width="42" height="42" fill="white"/>
</clipPath>
</defs>
</svg>
