<svg width="40" height="40" viewBox="0 0 40 40" fill="none" xmlns="http://www.w3.org/2000/svg">
<g clip-path="url(#clip0_48_22)">
<path d="M29.9695 19.9804V38.2396C29.9695 39.6441 29.6337 39.975 28.2124 39.975H1.73682C0.331121 39.975 0.00156189 39.6488 0 38.2302C0 29.3327 0 20.4372 0 11.5438C0 10.2251 0.351425 9.86768 1.65248 9.86612C3.89223 9.86612 6.13042 9.86612 8.36861 9.86612C9.4838 9.86612 9.86021 9.48377 9.86333 8.36325C9.86333 6.09881 9.86333 3.83748 9.86333 1.57147C9.86333 0.41038 10.2569 0.0108643 11.3955 0.0108643H28.4201C29.5634 0.0108643 29.9617 0.40882 29.9633 1.57147C29.9695 7.70571 29.9716 13.842 29.9695 19.9804ZM25.3354 12.1259C25.023 11.7747 24.8012 11.2769 24.4732 11.1989C24.0656 11.1037 23.4455 11.2114 23.1456 11.4813C21.9305 12.5738 20.7934 13.7661 19.6501 14.9412C19.3643 15.2331 19.1456 15.2736 18.7817 15.0786C17.7962 14.5511 16.7716 14.0969 15.7891 13.5632C15.0504 13.1637 14.4756 13.2917 13.9149 13.8753C12.9059 14.9256 11.8376 15.9228 10.838 16.9825C10.4209 17.4257 10.0976 17.5584 9.52284 17.2182C8.62944 16.6907 7.67356 16.2662 6.73955 15.8136C5.91488 15.411 5.23233 15.5655 4.91527 16.2069C4.5982 16.8483 4.87778 17.4928 5.68684 17.9017C7.00976 18.5712 8.34986 19.2079 9.66185 19.8993C10.4037 20.2894 10.977 20.1661 11.5455 19.5747C12.5732 18.5072 13.665 17.4975 14.6693 16.4113C15.091 15.9587 15.4143 15.9431 15.9188 16.2303C16.8559 16.75 17.8274 17.1807 18.7724 17.6739C19.4159 18.0094 19.9578 17.9282 20.467 17.4132C21.8727 15.99 23.3081 14.5854 24.7091 13.1512C24.9512 12.9093 25.0746 12.5582 25.3354 12.1259ZM14.9223 27.4401C17.704 27.4401 20.4842 27.4401 23.2659 27.4401C23.5783 27.4401 23.9844 27.4854 24.1656 27.3153C24.4904 27.011 24.8934 26.535 24.8622 26.1729C24.8309 25.8109 24.3327 25.4535 23.9859 25.1554C23.8626 25.0493 23.5845 25.1117 23.3768 25.1117H6.61148C6.40531 25.1117 6.13042 25.0446 6.00234 25.1492C5.64779 25.4379 5.13706 25.7734 5.09488 26.1417C5.05271 26.51 5.44319 26.9891 5.76025 27.3013C5.93674 27.4745 6.35064 27.4386 6.65677 27.4401C9.41195 27.4448 12.1687 27.4401 14.9223 27.4401ZM12.4701 30.1197C10.4678 30.1197 8.46388 30.1197 6.46154 30.1197C5.55877 30.1197 5.01367 30.5785 5.0246 31.2933C5.03553 31.9768 5.57438 32.4466 6.41468 32.4482C10.4475 32.4575 14.4792 32.4575 18.51 32.4482C19.3659 32.4482 19.8829 31.9971 19.8969 31.2995C19.9094 30.5676 19.3862 30.1213 18.4772 30.1182C16.4842 30.115 14.474 30.1197 12.4717 30.1197H12.4701Z" fill="white"/>
<path d="M32.6919 11.1537H39.9984V12.0058C39.9984 19.5264 40.0078 27.0454 39.9797 34.566C39.9576 35.1003 39.7996 35.6203 39.5205 36.0766C38.8692 37.1691 38.1351 38.2162 37.4135 39.2665C36.7481 40.2372 35.886 40.245 35.2269 39.2806C34.4459 38.1429 33.6822 36.9958 32.9434 35.8316C32.7634 35.5515 32.6625 35.228 32.6513 34.8953C32.6357 27.0922 32.6331 19.2855 32.6435 11.4752C32.6531 11.3671 32.6692 11.2598 32.6919 11.1537Z" fill="white"/>
<path d="M39.9953 8.74719H32.6357V6.17375C32.6357 4.58973 32.6357 3.00415 32.6357 1.42013C32.6357 0.4229 33.0605 0.01558 34.0664 0.00621637C35.5986 -0.00158669 37.1324 -0.00470791 38.6646 0.00621637C39.4611 0.00621637 39.975 0.419778 39.9813 1.13454C40.0109 3.65024 39.9953 6.16438 39.9953 8.74719Z" fill="white"/>
<path d="M7.48301 7.49408H1.05896C3.18469 5.37165 5.36197 3.1946 7.48301 1.07373V7.49408Z" fill="white"/>
</g>
<defs>
<clipPath id="clip0_48_22">
<rect width="40" height="40" fill="white"/>
</clipPath>
</defs>
</svg>
