<svg width="41" height="41" viewBox="0 0 41 41" fill="none" xmlns="http://www.w3.org/2000/svg">
<g clip-path="url(#clip0_48_27)">
<path d="M25.0427 32.7997L26.3508 35.495H14.6441L15.9608 32.7997H14.9446C11.216 32.7997 7.48798 32.7997 3.7605 32.7997C1.38329 32.7997 0.00341797 31.411 0.00341797 29.0266C0.00341797 23.7886 0.00341797 18.5505 0.00341797 13.3125C0.00341797 10.9418 1.39354 9.5736 3.78612 9.56506C5.23259 9.56506 6.67907 9.56506 8.2263 9.56506C7.96331 14.0846 9.42174 17.8389 12.9756 20.6401C15.4211 22.5701 18.2475 23.3985 21.3522 23.2021C27.7238 22.7905 33.3765 17.224 32.7942 9.65217C34.6335 9.65217 36.483 9.51382 38.3017 9.69488C39.866 9.85031 40.9658 11.2936 40.9727 12.8889C41 18.4116 41 23.9343 40.9727 29.457C40.9624 31.382 39.4596 32.7877 37.4837 32.7979C33.6993 32.8167 29.9132 32.7979 26.1288 32.7979L25.0427 32.7997Z" fill="white"/>
<path d="M31.4263 10.969C31.4197 12.4046 31.1304 13.8248 30.575 15.1485C30.0196 16.4722 29.209 17.6736 28.1894 18.684C27.1698 19.6944 25.9612 20.4941 24.6326 21.0373C23.3041 21.5806 21.8815 21.8568 20.4462 21.8502C19.0109 21.8435 17.5909 21.5542 16.2674 20.9988C14.9439 20.4433 13.7427 19.6325 12.7325 18.6128C11.7223 17.593 10.9227 16.3842 10.3796 15.0554C9.83643 13.7266 9.56027 12.3038 9.56689 10.8683C9.58226 4.86276 14.5194 -0.0137183 20.5478 0.00677824C23.443 0.0203403 26.2145 1.18226 28.254 3.23749C30.2936 5.29273 31.4344 8.07335 31.4263 10.969ZM23.2375 6.66475C23.3554 4.69025 22.1856 3.39042 20.4539 3.43142C18.7222 3.47241 17.6976 4.75515 17.8786 6.60497C18.0135 7.9902 18.1262 9.37713 18.2611 10.7624C18.3875 12.0776 19.2858 12.964 20.5102 12.9828C21.7603 13.0067 22.7303 12.1066 22.867 10.7624C23.007 9.35322 23.1231 7.93725 23.2375 6.65792V6.66475ZM20.5051 18.4503C20.9104 18.4503 21.3066 18.3301 21.6437 18.1049C21.9807 17.8796 22.2433 17.5595 22.3984 17.185C22.5535 16.8105 22.5941 16.3984 22.5151 16.0008C22.436 15.6032 22.2408 15.238 21.9542 14.9513C21.6676 14.6647 21.3024 14.4694 20.9049 14.3904C20.5074 14.3113 20.0953 14.3519 19.7209 14.507C19.3464 14.6621 19.0264 14.9248 18.8012 15.2619C18.576 15.599 18.4558 15.9952 18.4558 16.4006C18.4585 16.9419 18.6751 17.4601 19.0584 17.8421C19.4417 18.2242 19.9606 18.4391 20.5017 18.44L20.5051 18.4503Z" fill="white"/>
<path d="M20.6212 36.8938H35.6496C35.9345 36.8826 36.2198 36.8911 36.5035 36.9195C36.9827 36.9935 37.4202 37.2352 37.7381 37.6015C38.056 37.9678 38.2337 38.435 38.2396 38.92C38.2456 39.405 38.0794 39.8764 37.7705 40.2503C37.4617 40.6243 37.0303 40.8766 36.553 40.9624C36.2424 40.9986 35.9295 41.0101 35.6171 40.9966H5.39141C5.10663 41.007 4.82148 41.0001 4.53753 40.9761C4.04433 40.9079 3.59282 40.6625 3.26732 40.2857C2.94183 39.9089 2.76463 39.4264 2.76881 38.9285C2.77299 38.4305 2.95828 37.9512 3.29006 37.5799C3.62184 37.2086 4.07741 36.9708 4.57168 36.9109C4.85579 36.8898 5.14084 36.8841 5.42556 36.8938H20.6212ZM20.5854 38.2603H5.49046C5.23429 38.2603 4.9286 38.1834 4.73563 38.2962C4.48288 38.443 4.19426 38.7283 4.16182 38.9794C4.13791 39.1604 4.48629 39.4457 4.72709 39.5823C4.89786 39.6814 5.17111 39.6148 5.39824 39.6148H35.5881C35.8426 39.6148 36.1499 39.6814 36.3412 39.5669C36.5701 39.4269 36.8177 39.1365 36.8382 38.8837C36.8535 38.6958 36.5684 38.4089 36.3498 38.2962C36.1312 38.1834 35.8494 38.2483 35.5949 38.2483L20.5854 38.2603Z" fill="white"/>
</g>
<defs>
<clipPath id="clip0_48_27">
<rect width="41" height="41" fill="white"/>
</clipPath>
</defs>
</svg>
