<svg width="39" height="49" viewBox="0 0 39 49" fill="none" xmlns="http://www.w3.org/2000/svg">
<g clip-path="url(#clip0_48_15)">
<path d="M39 24.6071C39 30.4206 39 36.2347 39 42.0495C39 46.2688 36.2461 48.9897 31.9993 48.9897C23.6603 48.9897 15.3261 48.9897 6.99659 48.9897C2.76215 48.9897 0.00821513 46.2504 0.00616455 42.0332C0.00616455 30.3369 0.00616455 18.6406 0.00616455 6.94425C0.00616455 2.73521 2.7683 0.00402832 7.00685 0.00402832C15.3459 0.00402832 23.6801 0.00402832 32.0096 0.00402832C36.2502 0.00402832 38.9939 2.73725 39 6.96058C39.0055 12.8434 39.0055 18.7256 39 24.6071ZM11.0773 3.2741C9.6726 3.2741 8.4115 3.2741 7.15449 3.2741C4.48874 3.2741 3.2912 4.48864 3.2912 7.15246C3.2912 18.7195 3.2912 30.2865 3.2912 41.8536C3.2912 44.5174 4.50104 45.7319 7.16064 45.7319H31.7676C34.5133 45.7319 35.717 44.5439 35.717 41.8311V15.295C35.717 12.4046 35.7293 9.51213 35.717 6.62173C35.7047 5.02956 34.825 3.64356 33.3507 3.46597C31.5892 3.25164 29.7806 3.41494 27.9371 3.41494C27.9371 3.8089 27.9371 4.18041 27.9371 4.55191C27.89 6.85852 26.3213 8.49559 24.0123 8.52825C21.0048 8.5718 17.9973 8.5718 14.9898 8.52825C12.7341 8.49355 11.1511 6.86668 11.0937 4.63152C11.069 4.22736 11.0773 3.82319 11.0773 3.2741ZM24.5578 3.35166H14.4135C14.2803 5.26431 14.2823 5.26635 16.095 5.26635H22.9542C24.7034 5.26635 24.771 5.18878 24.5578 3.35166Z" fill="white"/>
<path d="M20.6678 17.9732C18.9597 17.9732 17.2495 17.9895 15.5414 17.9609C14.9795 17.9609 14.6453 18.0916 14.3295 18.6203C13.8205 19.4992 13.0186 20.1731 12.0627 20.5251C11.1069 20.8771 10.0574 20.8849 9.09638 20.5472C8.15144 20.2254 7.34227 19.5974 6.79836 18.7636C6.25446 17.9298 6.00728 16.9385 6.09638 15.9483C6.17484 14.9376 6.60333 13.9853 7.30867 13.2542C8.01402 12.523 8.95247 12.0582 9.96378 11.9393C11.8339 11.7066 13.3308 12.4353 14.309 14.0254C14.6535 14.5868 15.0123 14.7194 15.609 14.7154C18.9248 14.6909 22.2386 14.697 25.5543 14.7154C29.7478 14.7154 32.9077 17.7221 32.9364 21.7025C32.9651 25.7177 29.7744 28.802 25.5359 28.7632C24.3896 28.753 23.6227 28.953 22.8476 29.9879C21.0513 32.3537 17.4012 32.0741 15.7874 29.5307C15.3978 28.9183 15.0041 28.6897 14.3233 28.7611C13.8496 28.8101 13.3657 28.7611 12.8879 28.7856C11.9915 28.8488 11.1475 29.2298 10.5091 29.8595C9.87076 30.4892 9.4803 31.3258 9.4086 32.2175C9.33691 33.1093 9.58873 33.997 10.1184 34.7197C10.648 35.4425 11.4204 35.9522 12.2953 36.1566C12.6956 36.2412 13.1041 36.2823 13.5133 36.279C16.8271 36.2892 20.1429 36.279 23.4566 36.2954C23.7041 36.3204 23.9534 36.269 24.1706 36.1481C24.3878 36.0273 24.5624 35.8428 24.6705 35.6197C25.1622 34.7718 25.928 34.1148 26.8431 33.756C27.7581 33.3971 28.7683 33.3576 29.7088 33.6438C30.6356 33.9108 31.4505 34.4694 32.0315 35.236C32.6126 36.0027 32.9285 36.9361 32.932 37.8965C32.9355 38.8568 32.6263 39.7925 32.0508 40.5633C31.4753 41.3341 30.6644 41.8985 29.7396 42.1721C28.7985 42.4572 27.7885 42.4194 26.8715 42.0648C25.9545 41.7102 25.1838 41.0594 24.6828 40.2166C24.574 39.995 24.3994 39.8121 24.1826 39.6927C23.9658 39.5733 23.7173 39.5232 23.471 39.5491C20.0198 39.5695 16.5687 39.594 13.1176 39.5491C9.58032 39.5001 6.64389 36.9731 6.15995 33.652C5.64525 30.1329 7.61791 26.8301 10.9747 25.8565C12.0943 25.5319 13.3308 25.5707 14.5161 25.5054C15.0246 25.4768 15.3486 25.3992 15.6582 24.893C17.5222 21.9026 21.4409 21.923 23.3807 24.8644C23.633 25.1749 23.9888 25.3849 24.3835 25.4564C24.8756 25.5584 25.4088 25.4972 25.9152 25.4768C28.0704 25.3951 29.6699 23.7458 29.6371 21.6576C29.622 20.6796 29.2211 19.7466 28.5209 19.0603C27.8207 18.374 26.8774 17.9894 25.8947 17.9895C24.1538 17.9446 22.4108 17.9732 20.6678 17.9732ZM19.2324 28.4529L19.7102 28.4672C20.0342 28.0304 20.5489 27.6303 20.6371 27.1506C20.7642 26.475 20.2495 25.9953 19.5379 25.9728C18.8264 25.9504 18.2932 26.4137 18.3753 27.0873C18.4306 27.5711 18.9248 27.9916 19.2263 28.4529H19.2324ZM10.7861 14.9971H10.296C9.98839 15.442 9.5065 15.8564 9.42037 16.3402C9.29529 17.0322 9.83049 17.4914 10.5277 17.4914C11.2249 17.4914 11.7703 17.0465 11.6576 16.3524C11.5776 15.8646 11.0916 15.4461 10.7861 14.9971ZM29.7929 38.1978V37.7038C29.3561 37.3895 28.9542 36.8873 28.4764 36.8036C27.7895 36.675 27.326 37.1833 27.3055 37.8916C27.285 38.5999 27.7403 39.1164 28.4272 39.0286C28.9173 38.9571 29.3418 38.4836 29.7929 38.1978Z" fill="white"/>
</g>
<defs>
<clipPath id="clip0_48_15">
<rect width="39" height="49" fill="white"/>
</clipPath>
</defs>
</svg>
